<?xml version="1.0" encoding="UTF-8" standalone="no"?>
<!DOCTYPE svg PUBLIC "-//W3C//DTD SVG 1.0//EN"
 "http://www.w3.org/TR/2001/REC-SVG-20010904/DTD/svg10.dtd" [
 <!ATTLIST svg xmlns:xlink CDATA #FIXED "http://www.w3.org/1999/xlink">
]>
<!-- Generated by Graphviz version 2.20.3 (Wed Oct &#160;8 06:02:12 UTC 2008)
     For user: Xanatos -->
<!-- Title: models_diagram Pages: 1 -->
<svg width="647pt" height="570pt"
 viewBox="0.00 0.00 647.00 570.00" xmlns="http://www.w3.org/2000/svg" xmlns:xlink="http://www.w3.org/1999/xlink">
<g id="graph0" class="graph" transform="scale(1 1) rotate(0) translate(4 566)">
<title>models_diagram</title>
<polygon style="fill:white;stroke:white;" points="-4,4 -4,-566 643,-566 643,4 -4,4"/>
<!-- _diagram_info -->
<g id="node1" class="node"><title>_diagram_info</title>
<text text-anchor="start" x="7.5" y="-525.4" style="font-family:Times New Roman;font-size:14.00;">Models diagram</text>
<text text-anchor="start" x="7.5" y="-509.4" style="font-family:Times New Roman;font-size:14.00;">Date: Oct 15 2008 &#45; 02:07</text>
<text text-anchor="start" x="7.5" y="-493.4" style="font-family:Times New Roman;font-size:14.00;">Migration version: 10</text>
<text text-anchor="start" x="7.5" y="-477.4" style="font-family:Times New Roman;font-size:14.00;">Generated by RailRoad 0.5.0</text>
</g>
<!-- StudentExam -->
<g id="node2" class="node"><title>StudentExam</title>
<polyline style="fill:none;stroke:black;" points="433,-118 585,-118 "/>
<path style="fill:none;stroke:black;" d="M585,-118C591,-118 597,-124 597,-130"/>
<polyline style="fill:none;stroke:black;" points="597,-130 597,-218 "/>
<path style="fill:none;stroke:black;" d="M597,-218C597,-224 591,-230 585,-230"/>
<polyline style="fill:none;stroke:black;" points="585,-230 433,-230 "/>
<path style="fill:none;stroke:black;" d="M433,-230C427,-230 421,-224 421,-218"/>
<polyline style="fill:none;stroke:black;" points="421,-218 421,-130 "/>
<path style="fill:none;stroke:black;" d="M421,-130C421,-124 427,-118 433,-118"/>
<text text-anchor="middle" x="509" y="-213.4" style="font-family:Times New Roman;font-size:14.00;">StudentExam</text>
<polyline style="fill:none;stroke:black;" points="421,-206 597,-206 "/>
<text text-anchor="start" x="429" y="-189.4" style="font-family:Times New Roman;font-size:14.00;">radio_button_exam :boolean</text>
<text text-anchor="start" x="429" y="-173.4" style="font-family:Times New Roman;font-size:14.00;">attempt_position :integer</text>
<text text-anchor="start" x="429" y="-157.4" style="font-family:Times New Roman;font-size:14.00;">status :integer</text>
<text text-anchor="start" x="429" y="-141.4" style="font-family:Times New Roman;font-size:14.00;">created_at :datetime</text>
<text text-anchor="start" x="429" y="-125.4" style="font-family:Times New Roman;font-size:14.00;">updated_at :datetime</text>
</g>
<!-- Result -->
<g id="node8" class="node"><title>Result</title>
<polyline style="fill:none;stroke:black;" points="261,0 369,0 "/>
<path style="fill:none;stroke:black;" d="M369,0C375,0 381,-6 381,-12"/>
<polyline style="fill:none;stroke:black;" points="381,-12 381,-68 "/>
<path style="fill:none;stroke:black;" d="M381,-68C381,-74 375,-80 369,-80"/>
<polyline style="fill:none;stroke:black;" points="369,-80 261,-80 "/>
<path style="fill:none;stroke:black;" d="M261,-80C255,-80 249,-74 249,-68"/>
<polyline style="fill:none;stroke:black;" points="249,-68 249,-12 "/>
<path style="fill:none;stroke:black;" d="M249,-12C249,-6 255,0 261,0"/>
<text text-anchor="middle" x="315" y="-63.4" style="font-family:Times New Roman;font-size:14.00;">Result</text>
<polyline style="fill:none;stroke:black;" points="249,-56 381,-56 "/>
<text text-anchor="start" x="257" y="-39.4" style="font-family:Times New Roman;font-size:14.00;">answer :string</text>
<text text-anchor="start" x="257" y="-23.4" style="font-family:Times New Roman;font-size:14.00;">created_at :datetime</text>
<text text-anchor="start" x="257" y="-7.4" style="font-family:Times New Roman;font-size:14.00;">updated_at :datetime</text>
</g>
<!-- StudentExam&#45;&gt;Result -->
<g id="edge2" class="edge"><title>StudentExam&#45;&gt;Result</title>
<path style="fill:none;stroke:black;" d="M419,-112C406,-103 393,-93 380,-85"/>
<polygon style="fill:black;stroke:black;" points="419.679,-112.453 425.504,-121.744 423.84,-115.226 428,-118 428,-118 428,-118 423.84,-115.226 430.496,-114.256 419.679,-112.453 419.679,-112.453"/>
<ellipse style="fill:black;stroke:black;" cx="376.255" cy="-82.325" rx="4.00002" ry="4.00002"/>
</g>
<!-- ExamQuestion -->
<g id="node3" class="node"><title>ExamQuestion</title>
<polyline style="fill:none;stroke:black;" points="283,-134 391,-134 "/>
<path style="fill:none;stroke:black;" d="M391,-134C397,-134 403,-140 403,-146"/>
<polyline style="fill:none;stroke:black;" points="403,-146 403,-202 "/>
<path style="fill:none;stroke:black;" d="M403,-202C403,-208 397,-214 391,-214"/>
<polyline style="fill:none;stroke:black;" points="391,-214 283,-214 "/>
<path style="fill:none;stroke:black;" d="M283,-214C277,-214 271,-208 271,-202"/>
<polyline style="fill:none;stroke:black;" points="271,-202 271,-146 "/>
<path style="fill:none;stroke:black;" d="M271,-146C271,-140 277,-134 283,-134"/>
<text text-anchor="middle" x="337" y="-197.4" style="font-family:Times New Roman;font-size:14.00;">ExamQuestion</text>
<polyline style="fill:none;stroke:black;" points="271,-190 403,-190 "/>
<text text-anchor="start" x="279" y="-173.4" style="font-family:Times New Roman;font-size:14.00;">position :integer</text>
<text text-anchor="start" x="279" y="-157.4" style="font-family:Times New Roman;font-size:14.00;">created_at :datetime</text>
<text text-anchor="start" x="279" y="-141.4" style="font-family:Times New Roman;font-size:14.00;">updated_at :datetime</text>
</g>
<!-- Student -->
<g id="node4" class="node"><title>Student</title>
<polyline style="fill:none;stroke:black;" points="497,-268 628,-268 "/>
<path style="fill:none;stroke:black;" d="M628,-268C634,-268 640,-274 640,-280"/>
<polyline style="fill:none;stroke:black;" points="640,-280 640,-400 "/>
<path style="fill:none;stroke:black;" d="M640,-400C640,-406 634,-412 628,-412"/>
<polyline style="fill:none;stroke:black;" points="628,-412 497,-412 "/>
<path style="fill:none;stroke:black;" d="M497,-412C491,-412 485,-406 485,-400"/>
<polyline style="fill:none;stroke:black;" points="485,-400 485,-280 "/>
<path style="fill:none;stroke:black;" d="M485,-280C485,-274 491,-268 497,-268"/>
<text text-anchor="middle" x="562" y="-395.4" style="font-family:Times New Roman;font-size:14.00;">Student</text>
<polyline style="fill:none;stroke:black;" points="485,-388 640,-388 "/>
<text text-anchor="start" x="492.5" y="-371.4" style="font-family:Times New Roman;font-size:14.00;">name :string</text>
<text text-anchor="start" x="492.5" y="-355.4" style="font-family:Times New Roman;font-size:14.00;">enabled :boolean</text>
<text text-anchor="start" x="492.5" y="-339.4" style="font-family:Times New Roman;font-size:14.00;">hashed_password :string</text>
<text text-anchor="start" x="492.5" y="-323.4" style="font-family:Times New Roman;font-size:14.00;">salt :string</text>
<text text-anchor="start" x="492.5" y="-307.4" style="font-family:Times New Roman;font-size:14.00;">attempt_position :integer</text>
<text text-anchor="start" x="492.5" y="-291.4" style="font-family:Times New Roman;font-size:14.00;">created_at :datetime</text>
<text text-anchor="start" x="492.5" y="-275.4" style="font-family:Times New Roman;font-size:14.00;">updated_at :datetime</text>
</g>
<!-- Student&#45;&gt;StudentExam -->
<g id="edge4" class="edge"><title>Student&#45;&gt;StudentExam</title>
<path style="fill:none;stroke:black;" d="M536,-258C534,-252 532,-245 530,-238"/>
<polygon style="fill:black;stroke:black;" points="536.126,-258.422 534.69,-269.293 537.563,-263.211 539,-268 539,-268 539,-268 537.563,-263.211 543.31,-266.707 536.126,-258.422 536.126,-258.422"/>
<ellipse style="fill:black;stroke:black;" cx="528.405" cy="-233.745" rx="4.00001" ry="4.00001"/>
</g>
<!-- Question -->
<g id="node5" class="node"><title>Question</title>
<polyline style="fill:none;stroke:black;" points="208,-458 316,-458 "/>
<path style="fill:none;stroke:black;" d="M316,-458C322,-458 328,-464 328,-470"/>
<polyline style="fill:none;stroke:black;" points="328,-470 328,-542 "/>
<path style="fill:none;stroke:black;" d="M328,-542C328,-548 322,-554 316,-554"/>
<polyline style="fill:none;stroke:black;" points="316,-554 208,-554 "/>
<path style="fill:none;stroke:black;" d="M208,-554C202,-554 196,-548 196,-542"/>
<polyline style="fill:none;stroke:black;" points="196,-542 196,-470 "/>
<path style="fill:none;stroke:black;" d="M196,-470C196,-464 202,-458 208,-458"/>
<text text-anchor="middle" x="262" y="-537.4" style="font-family:Times New Roman;font-size:14.00;">Question</text>
<polyline style="fill:none;stroke:black;" points="196,-530 328,-530 "/>
<text text-anchor="start" x="204" y="-513.4" style="font-family:Times New Roman;font-size:14.00;">depreciated :boolean</text>
<text text-anchor="start" x="204" y="-497.4" style="font-family:Times New Roman;font-size:14.00;">q_data :binary</text>
<text text-anchor="start" x="204" y="-481.4" style="font-family:Times New Roman;font-size:14.00;">created_at :datetime</text>
<text text-anchor="start" x="204" y="-465.4" style="font-family:Times New Roman;font-size:14.00;">updated_at :datetime</text>
</g>
<!-- Question&#45;&gt;ExamQuestion -->
<g id="edge12" class="edge"><title>Question&#45;&gt;ExamQuestion</title>
<path style="fill:none;stroke:black;" d="M268,-450C273,-401 283,-329 300,-268 304,-253 310,-237 316,-222"/>
<ellipse style="fill:none;stroke:black;" cx="267.496" cy="-454.031" rx="4.00001" ry="4.00001"/>
<ellipse style="fill:black;stroke:black;" cx="317.595" cy="-217.745" rx="4.00001" ry="4.00001"/>
</g>
<!-- Question&#45;&gt;Question -->
<g id="edge10" class="edge"><title>Question&#45;&gt;Question</title>
<path style="fill:none;stroke:black;" d="M338,-516C343,-513 346,-510 346,-506 346,-502 342,-498 336,-496"/>
<polygon style="fill:black;stroke:black;" points="337.806,-516.039 327.117,-513.587 332.903,-517.019 328,-518 328,-518 328,-518 332.903,-517.019 328.883,-522.413 337.806,-516.039 337.806,-516.039"/>
<ellipse style="fill:black;stroke:black;" cx="331.881" cy="-494.97" rx="4.00001" ry="4.00001"/>
<text text-anchor="middle" x="390" y="-501.4" style="font-family:Times New Roman;font-size:14.00;">slave_questions</text>
</g>
<!-- Exam -->
<g id="node6" class="node"><title>Exam</title>
<polyline style="fill:none;stroke:black;" points="321,-268 456,-268 "/>
<path style="fill:none;stroke:black;" d="M456,-268C462,-268 468,-274 468,-280"/>
<polyline style="fill:none;stroke:black;" points="468,-280 468,-400 "/>
<path style="fill:none;stroke:black;" d="M468,-400C468,-406 462,-412 456,-412"/>
<polyline style="fill:none;stroke:black;" points="456,-412 321,-412 "/>
<path style="fill:none;stroke:black;" d="M321,-412C315,-412 309,-406 309,-400"/>
<polyline style="fill:none;stroke:black;" points="309,-400 309,-280 "/>
<path style="fill:none;stroke:black;" d="M309,-280C309,-274 315,-268 321,-268"/>
<text text-anchor="middle" x="388" y="-395.4" style="font-family:Times New Roman;font-size:14.00;">Exam</text>
<polyline style="fill:none;stroke:black;" points="309,-388 468,-388 "/>
<text text-anchor="start" x="316.5" y="-371.4" style="font-family:Times New Roman;font-size:14.00;">name :string</text>
<text text-anchor="start" x="316.5" y="-355.4" style="font-family:Times New Roman;font-size:14.00;">created_by :integer</text>
<text text-anchor="start" x="316.5" y="-339.4" style="font-family:Times New Roman;font-size:14.00;">results_viewable :boolean</text>
<text text-anchor="start" x="316.5" y="-323.4" style="font-family:Times New Roman;font-size:14.00;">status :integer</text>
<text text-anchor="start" x="316.5" y="-307.4" style="font-family:Times New Roman;font-size:14.00;">skippable :boolean</text>
<text text-anchor="start" x="316.5" y="-291.4" style="font-family:Times New Roman;font-size:14.00;">created_at :datetime</text>
<text text-anchor="start" x="316.5" y="-275.4" style="font-family:Times New Roman;font-size:14.00;">updated_at :datetime</text>
</g>
<!-- Question&#45;&gt;Exam -->
<g id="edge6" class="edge"><title>Question&#45;&gt;Exam</title>
<path style="fill:none;stroke:black;" d="M304,-450C311,-441 319,-430 327,-420"/>
<polygon style="fill:black;stroke:black;" points="304,-450 294.4,-455.3 301,-454 298,-458 298,-458 298,-458 301,-454 301.6,-460.7 304,-450 304,-450"/>
<polygon style="fill:black;stroke:black;" points="327,-420 336.6,-414.7 330,-416 333,-412 333,-412 333,-412 330,-416 329.4,-409.3 327,-420 327,-420"/>
</g>
<!-- Question&#45;&gt;Result -->
<g id="edge8" class="edge"><title>Question&#45;&gt;Result</title>
<path style="fill:none;stroke:black;" d="M252,-448C241,-370 228,-230 262,-118 265,-107 270,-97 277,-87"/>
<polygon style="fill:black;stroke:black;" points="252.005,-448.05 248.522,-458.448 252.502,-453.025 253,-458 253,-458 253,-458 252.502,-453.025 257.478,-457.552 252.005,-448.05 252.005,-448.05"/>
<ellipse style="fill:black;stroke:black;" cx="279.015" cy="-83.473" rx="4.00002" ry="4.00002"/>
</g>
<!-- Exam&#45;&gt;StudentExam -->
<g id="edge16" class="edge"><title>Exam&#45;&gt;StudentExam</title>
<path style="fill:none;stroke:black;" d="M447,-259C452,-251 458,-244 463,-236"/>
<polygon style="fill:black;stroke:black;" points="446.547,-259.679 437.256,-265.504 443.774,-263.84 441,-268 441,-268 441,-268 443.774,-263.84 444.744,-270.496 446.547,-259.679 446.547,-259.679"/>
<ellipse style="fill:black;stroke:black;" cx="465.439" cy="-233.073" rx="4.00002" ry="4.00002"/>
</g>
<!-- Exam&#45;&gt;ExamQuestion -->
<g id="edge14" class="edge"><title>Exam&#45;&gt;ExamQuestion</title>
<path style="fill:none;stroke:black;" d="M363,-258C359,-246 355,-233 351,-222"/>
<polygon style="fill:black;stroke:black;" points="363.126,-258.422 361.69,-269.293 364.563,-263.211 366,-268 366,-268 366,-268 364.563,-263.211 370.31,-266.707 363.126,-258.422 363.126,-258.422"/>
<ellipse style="fill:black;stroke:black;" cx="349.97" cy="-217.881" rx="4.00001" ry="4.00001"/>
</g>
<!-- Teacher -->
<g id="node7" class="node"><title>Teacher</title>
<polyline style="fill:none;stroke:black;" points="465,-450 596,-450 "/>
<path style="fill:none;stroke:black;" d="M596,-450C602,-450 608,-456 608,-462"/>
<polyline style="fill:none;stroke:black;" points="608,-462 608,-550 "/>
<path style="fill:none;stroke:black;" d="M608,-550C608,-556 602,-562 596,-562"/>
<polyline style="fill:none;stroke:black;" points="596,-562 465,-562 "/>
<path style="fill:none;stroke:black;" d="M465,-562C459,-562 453,-556 453,-550"/>
<polyline style="fill:none;stroke:black;" points="453,-550 453,-462 "/>
<path style="fill:none;stroke:black;" d="M453,-462C453,-456 459,-450 465,-450"/>
<text text-anchor="middle" x="530" y="-545.4" style="font-family:Times New Roman;font-size:14.00;">Teacher</text>
<polyline style="fill:none;stroke:black;" points="453,-538 608,-538 "/>
<text text-anchor="start" x="460.5" y="-521.4" style="font-family:Times New Roman;font-size:14.00;">enabled :boolean</text>
<text text-anchor="start" x="460.5" y="-505.4" style="font-family:Times New Roman;font-size:14.00;">hashed_password :string</text>
<text text-anchor="start" x="460.5" y="-489.4" style="font-family:Times New Roman;font-size:14.00;">salt :string</text>
<text text-anchor="start" x="460.5" y="-473.4" style="font-family:Times New Roman;font-size:14.00;">created_at :datetime</text>
<text text-anchor="start" x="460.5" y="-457.4" style="font-family:Times New Roman;font-size:14.00;">updated_at :datetime</text>
</g>
<!-- Teacher&#45;&gt;Exam -->
<g id="edge18" class="edge"><title>Teacher&#45;&gt;Exam</title>
<path style="fill:none;stroke:black;" d="M476,-442C469,-435 462,-426 455,-418"/>
<polygon style="fill:black;stroke:black;" points="476,-442 478.4,-452.7 479,-446 482,-450 482,-450 482,-450 479,-446 485.6,-447.3 476,-442 476,-442"/>
<ellipse style="fill:black;stroke:black;" cx="452.561" cy="-415.073" rx="4.00002" ry="4.00002"/>
</g>
</g>
</svg>
